<?xml version="1.0" encoding="UTF-8"?>
<svg id="Capa_1" data-name="Capa 1" xmlns="http://www.w3.org/2000/svg" viewBox="0 0 7018.51 7100.89">
  <defs>
    <style>
      .cls-1 {
        fill: #f2e498;
      }

      .cls-1, .cls-2, .cls-3, .cls-4, .cls-5, .cls-6, .cls-7, .cls-8, .cls-9, .cls-10, .cls-11, .cls-12 {
        stroke-width: 0px;
      }

      .cls-2 {
        fill: #d1b446;
      }

      .cls-3 {
        fill: #cc9b46;
      }

      .cls-4 {
        fill: #dab929;
      }

      .cls-5 {
        fill: #d8d8d8;
      }

      .cls-6 {
        fill: #b7b7b8;
      }

      .cls-7 {
        fill: #a1a0a0;
      }

      .cls-8 {
        fill: #ede9e1;
      }

      .cls-9 {
        fill: #e2e1e1;
      }

      .cls-10 {
        fill: #ead69d;
      }

      .cls-11 {
        fill: #f0be3f;
      }

      .cls-12 {
        fill: #e8bc31;
      }
    </style>
  </defs>
  <g id="Layer0_75_FILL" data-name="Layer0 75 FILL">
    <path class="cls-6" d="m778.55,5589.02c-21.04,44.24-42.07,88.48-63.1,132.73-69.63,190.03,17.41,367.72,261.1,533.09,128.38,92.84,254.21,177.7,377.51,254.58-80.51-110.97-71.44-228.47,27.2-352.49-61.65-35.54-124.75-72.89-189.3-112.06-176.97-116.05-314.78-267.99-413.41-455.84m1599.26,1003.07c-7.25,139.26-88.85,234.99-244.78,287.21,193.65,63.1,380.41,101.18,560.28,114.23,515.68,36.99,796.36-38.08,842.06-225.2,16.68-67.45,45.33-181.32,85.95-341.61-372.07,237.17-786.57,292.29-1243.51,165.36m3259.44-2223.73c97.91,124.02,106.61,241.52,26.11,352.49,123.3-76.88,249.14-161.38,377.51-253.49,243.7-166.09,330.73-344.15,261.1-534.17-21.03-44.24-58.39-124.39-112.05-240.43-65.28,259.65-186.4,447.5-363.37,563.55-64.55,39.17-127.65,76.52-189.3,112.06Z"/>
    <path class="cls-12" d="m1772.92,3363.11c-.72.73-1.08,1.81-1.09,3.26-303.9,716.58-634.99,1457.47-993.28,2222.64,79.78,63.1,151.22,118.22,214.32,165.36,377.15-769.53,695.55-1586.2,955.2-2450.02-73.98-55.12-131.28-36.99-171.89,54.4l-3.26,4.35Z"/>
    <path class="cls-1" d="m2142.81,6352.74l604.89-1702.61c-396.01,429.37-581.68,346.33-557.02-249.14-249.5,559.92-475.06,1126.01-676.7,1698.26,219.76,123.3,429.37,207.79,628.82,253.49Z"/>
    <path class="cls-8" d="m4738.61,5212.59c-16.68-38.44-38.07-80.14-64.19-125.11-180.59-315.5-294.46-315.5-341.61,0-16.68,68.9-25.02,130.91-25.02,186.04-2.18,190.03,89.21,303.17,274.16,339.43,179.88-58.75,236.08-182.05,168.63-369.9-3.63-10.15-7.62-20.31-11.97-30.46m-1044.41-2959.17c-73.98-44.24-146.51-84.5-217.59-120.76,42.07-26.11,93.93-38.08,155.57-35.9,283.59-13.78,566.09-253.13,847.5-718.03,24.66-30.46,75.43-43.88,152.31-40.25,512.06,1041.51,633.17,924.74,363.37-350.31-8.7-208.88,22.49-251.67,93.56-128.38,28.29,301.72,97.91,459.83,208.88,474.34,33.36,5.08,69.99-2.18,109.88-21.76,8.71-4.35,17.41-9.43,26.11-15.23,21.76-81.96,28.29-159.2,19.58-231.73-13.78-129.1-75.43-242.97-184.95-341.61-29.01-167.54-79.06-305.71-150.13-414.5-398.18-437.35-1012.87-410.88-1844.05,79.42-1022.65,177.7-1338.52,667.26-947.59,1468.71-168.99,33.36-311.15,113.51-426.47,240.43-71.8,108.79-121.85,246.96-150.13,414.5-109.52,98.64-171.17,212.51-184.95,341.61-9.43,72.53-3.26,149.77,18.49,231.73,9.43,5.8,18.49,10.88,27.2,15.23,39.89,19.58,93.56,108.07,161.01,265.45,0-1.45.36-2.54,1.09-3.26l3.26-4.35c73.98-176.24,124.75-413.05,152.31-710.42,71.8-123.3,102.99-80.51,93.56,128.38-81.23,225.56,40.25,342.34,364.46,350.31,76.88-3.63,127.65,9.79,152.31,40.25,179.87,297.37,360.46,502.99,541.79,616.86,43.51,26.84,87.76,48.59,132.73,65.28,57.29,21.03,114.96,33,172.98,35.9,153.76-5.8,246.24,76.52,277.42,246.96,55.12,311.87,146.51,517.49,274.16,616.86,18.86,14.51,38.8,27.2,59.84,38.08,42.79,21.03,89.94,31.91,141.43,32.64,18.13-.73,35.54-1.45,52.22-2.18,34.81-5.08,66.73-11.24,95.74-18.49,58.75-15.96,105.53-39.89,140.35-71.8,53.67-49.32,76.52-118.58,68.54-207.8-1.45-4.35-2.18-8.34-2.18-11.97-100.81-256.75-66-504.07,104.44-741.97,15.24-19.58,30.83-39.53,46.78-59.84,229.92-277.06,283.58-522.57,161.01-736.53-112.42-195.83-370.99-364.82-775.7-506.98-115.32-76.88-227.38-146.51-336.17-208.88Z"/>
    <path class="cls-9" d="m3621.31,6426.72c-483.04,71.8-975.87,47.14-1478.5-73.98-199.46-45.69-409.06-130.19-628.82-253.49-93.56-52.95-205.62-124.39-336.17-214.32-52.22-35.54-113.87-79.06-184.95-130.55-63.1-47.14-134.54-102.26-214.32-165.36,98.64,187.85,236.44,339.8,413.41,455.84,64.55,39.17,127.65,76.52,189.3,112.06,356.84,204.53,689.02,349.59,996.55,435.17,456.93,126.92,871.43,71.8,1243.51-165.36Z"/>
    <path class="cls-7" d="m2133.02,6879.3c155.94-52.22,237.53-147.96,244.78-287.21-307.52-85.58-639.7-230.64-996.55-435.17-98.64,124.02-107.7,241.52-27.2,352.49,270.53,163.91,530.19,287.21,778.96,369.9m3530.33-2158.45c80.51-110.97,71.8-228.46-26.11-352.49-357.57,204.53-695.19,335.81-1012.86,393.83,17.41,166.82,87.4,270.89,209.97,312.24,282.13-71.8,558.47-189.66,829-353.58Z"/>
    <path class="cls-11" d="m3663.74,4132.28c-137.81-29.74-275.61-67.81-413.41-114.23-42.79-15.23-85.22-30.82-127.29-46.78-332.18-128.38-664.36-307.16-996.55-536.35-263.28,844.96-579.5,1661.63-948.68,2450.02,130.55,89.94,242.61,161.38,336.17,214.32,201.63-572.25,427.2-1138.34,676.7-1698.26-24.66,595.46,161.01,678.51,557.02,249.14l-604.89,1702.61c502.63,121.12,995.46,145.78,1478.5,73.98,42.79-168.27,130.55-547.59,263.28-1137.98,5.8-27.56,11.6-54.76,17.41-81.59,2.9-14.51,5.8-27.92,8.7-40.25l87.03-379.69c-21.03-10.88-40.98-23.57-59.84-38.08-127.65-99.36-219.04-304.98-274.16-616.86m-187.12-1999.62c71.08,36.26,143.61,76.52,217.59,120.76,108.79,62.38,220.85,132,336.17,208.88,404.71,142.16,663.27,311.15,775.7,506.98,19.59-85.58,26.48-204.53,20.67-356.84,249.5,559.92,455.84,1098.08,619.03,1614.49,132.73-47.14,244.79-96.46,336.17-147.96,91.39-51.49,175.88-117.13,253.49-196.92,76.16-80.51,127.65-143.61,154.49-189.3-324.93-693.37-622.3-1479.59-892.1-2358.63-110.97-14.51-180.6-172.62-208.88-474.34-71.08-123.3-102.26-80.51-93.56,128.38,269.8,1275.05,148.69,1391.83-363.37,350.31-76.88-3.63-127.65,9.79-152.31,40.25-281.41,464.91-563.91,704.25-847.5,718.03-61.65-2.18-113.51,9.79-155.57,35.9Z"/>
    <path class="cls-4" d="m2126.49,3434.92c-59.47-42.07-118.95-85.58-178.42-130.55-259.65,863.82-578.05,1680.49-955.2,2450.02,71.08,51.5,132.73,95.01,184.95,130.55,369.17-788.39,685.4-1605.06,948.68-2450.02Z"/>
    <path class="cls-3" d="m2538.82,3167.28c-24.66-30.46-75.43-43.88-152.31-40.25-324.2-7.98-445.69-124.75-364.46-350.31,9.43-208.88-21.76-251.68-93.56-128.38-27.56,297.37-78.33,534.17-152.31,710.42,40.62-91.39,97.91-109.52,171.89-54.4,59.47,44.97,118.95,88.49,178.42,130.55,332.18,229.19,664.36,407.97,996.55,536.35,42.07,15.96,84.5,31.55,127.29,46.78,137.81,46.42,275.61,84.5,413.41,114.23-31.19-170.44-123.66-252.76-277.42-246.96-58.02-2.9-115.69-14.87-172.98-35.9-44.97-16.68-89.22-38.44-132.73-65.28-181.32-113.87-361.91-319.49-541.79-616.86Z"/>
    <path class="cls-2" d="m4493.83,4507.61c0,3.63.73,7.62,2.18,11.97,123.3,40.62,225.2,30.1,305.71-31.55l-203.45-722.39c-170.45,237.89-205.26,485.22-104.44,741.97Z"/>
    <path class="cls-10" d="m4826.74,2612.44c5.81,152.31-1.08,271.26-20.67,356.84,122.57,213.96,68.9,459.47-161.01,736.53-15.96,20.31-31.55,40.25-46.78,59.84l203.45,722.39c55.84,26.84,270.53-60.2,644.05-261.1-163.19-516.4-369.53-1054.57-619.03-1614.49Z"/>
    <path class="cls-5" d="m5407.69,1312.36c-39.89,19.58-76.52,26.84-109.88,21.76,269.8,879.05,567.17,1665.26,892.1,2358.63,53.67,116.05,91.02,196.19,112.05,240.43,69.63,190.03-17.41,368.08-261.1,534.17-128.38,92.11-254.21,176.61-377.51,253.49-270.53,163.92-546.87,281.77-829,353.58-122.57-41.34-192.57-145.42-209.97-312.24,317.68-58.02,655.3-189.3,1012.86-393.83,61.65-35.54,124.75-72.89,189.3-112.06,176.97-116.05,298.1-303.9,363.37-563.55-26.84,45.69-78.33,108.79-154.49,189.3-77.61,79.78-162.1,145.42-253.49,196.92-91.39,51.5-203.45,100.82-336.17,147.96-373.52,200.9-588.21,287.94-644.05,261.1-80.51,61.65-182.41,72.17-305.71,31.55,7.98,89.21-14.87,158.48-68.54,207.8-34.82,31.91-81.6,55.85-140.35,71.8-29.01,7.25-60.93,13.42-95.74,18.49-16.68.73-34.09,1.45-52.22,2.18-51.49-.73-98.64-11.6-141.43-32.64l-87.03,379.69c-2.9,12.33-5.8,25.75-8.7,40.25-5.8,26.84-11.6,54.03-17.41,81.59-132.73,590.38-220.49,969.71-263.28,1137.98-40.62,160.29-69.27,274.16-85.95,341.61-45.69,187.12-326.38,262.19-842.06,225.2-179.87-13.06-366.63-51.13-560.28-114.23-248.77-82.68-508.43-205.98-778.96-369.9-123.3-76.88-249.14-161.74-377.51-254.58-243.7-165.36-330.73-343.06-261.1-533.09,21.03-44.24,42.06-88.48,63.1-132.73,358.29-765.18,689.39-1506.06,993.28-2222.64-67.45-157.39-121.12-245.87-161.01-265.45-8.7-4.35-17.77-9.43-27.2-15.23-21.76-81.96-27.92-159.2-18.49-231.73l-433-156.66c-257.48-65.28-430.46,17.41-518.94,248.05L31.14,4548.96c-88.48,246.6,11.6,420.67,300.27,522.21l480.86,174.07c-66,148.68-133.45,294.47-202.35,437.35-93.56,211.06-46.78,391.66,140.34,541.79,836.98,601.26,1536.16,893.19,2097.53,875.78,559.92-18.13,853.66-165,881.22-440.61,29.01-275.61,120.03-728.19,273.07-1357.74v-1.09l305.71-27.2c0-55.12,8.34-117.13,25.02-186.04,47.15-315.5,161.02-315.5,341.61,0,26.11,44.97,47.51,86.67,64.19,125.11,608.52-157.39,1118.4-416.31,1529.63-776.78,186.4-150.13,233.18-330.73,140.34-541.79-68.9-142.88-136.72-288.66-203.44-437.35l481.95-174.07c288.67-101.54,388.75-275.61,300.27-522.21l-582.04-1603.61c-88.48-230.64-261.47-313.32-518.95-248.05l-432.99,156.66c8.71,72.53,2.18,149.77-19.58,231.73-8.71,5.8-17.41,10.88-26.11,15.23m443.88,101.18c73.98-9.43,122.21,13.06,144.69,67.45l450.4,1240.24c32.64,95.01,15.23,153.4-52.22,175.16l-370.99,134.9c-198.01-477.96-376.06-973.7-534.18-1487.2l362.28-130.55M1165.85,3202.1l363.37,130.55c-158.11,513.5-336.17,1009.24-534.18,1487.2l-372.07-134.9c-67.45-21.76-84.86-80.14-52.22-175.16l450.4-1240.24c23.21-54.4,71.44-76.88,144.69-67.45Z"/>
  </g>
</svg>